G04 Layer_Color=128*
%FSLAX25Y25*%
%MOIN*%
G70*
G01*
G75*
%ADD17R,0.03740X0.01968*%
%ADD25R,0.01968X0.03740*%
%ADD26R,0.07087X0.05512*%
%ADD27R,0.20000X0.20000*%
%ADD82R,0.08661X0.08071*%
%ADD83R,0.03347X0.00984*%
%ADD84R,0.06260X0.09449*%
%ADD85R,0.09606X0.22047*%
%ADD86R,0.09606X0.03504*%
%ADD87R,0.05512X0.07087*%
%ADD88R,0.06496X0.07874*%
%ADD89R,0.06496X0.09055*%
%ADD90R,0.20000X0.20000*%
%ADD91R,0.04331X0.06102*%
%ADD92R,0.01575X0.05315*%
%ADD93R,0.05905X0.06102*%
%ADD156C,0.00200*%
%ADD157R,0.03937X0.03937*%
G36*
X-67752Y-218076D02*
X-68899D01*
X-69131Y-218105D01*
X-69557Y-218293D01*
X-69881Y-218627D01*
X-70056Y-219058D01*
Y-219524D01*
X-69881Y-219956D01*
X-69557Y-220290D01*
X-69131Y-220477D01*
X-68899Y-220507D01*
X-67751Y-220507D01*
Y-221260D01*
X-69289D01*
X-70013Y-220960D01*
X-70566Y-220406D01*
X-70866Y-219683D01*
Y-218900D01*
X-70566Y-218176D01*
X-70013Y-217622D01*
X-69289Y-217323D01*
X-67752D01*
Y-218076D01*
D02*
G37*
G36*
X-46916Y-217622D02*
X-46363Y-218176D01*
X-46063Y-218900D01*
Y-219683D01*
X-46363Y-220406D01*
X-46916Y-220960D01*
X-47640Y-221260D01*
X-49177D01*
Y-220507D01*
X-48030D01*
X-48030Y-220507D01*
X-47798Y-220477D01*
X-47372Y-220290D01*
X-47048Y-219956D01*
X-46873Y-219524D01*
Y-219058D01*
X-47048Y-218627D01*
X-47372Y-218293D01*
X-47798Y-218105D01*
X-48030Y-218076D01*
X-49178D01*
Y-217323D01*
X-47640D01*
X-46916Y-217622D01*
D02*
G37*
D17*
X-24803Y-57424D02*
D03*
Y-52024D02*
D03*
X-20669Y-68645D02*
D03*
Y-63245D02*
D03*
X-58268Y-205456D02*
D03*
Y-200056D02*
D03*
X-51181Y-205456D02*
D03*
Y-200056D02*
D03*
X-189961Y-18054D02*
D03*
Y-12654D02*
D03*
X-139764Y-18054D02*
D03*
Y-12654D02*
D03*
X-92913Y-18054D02*
D03*
Y-12654D02*
D03*
X-64173Y-29416D02*
D03*
Y-24016D02*
D03*
X-50394Y-29416D02*
D03*
Y-24016D02*
D03*
X-36614Y-29416D02*
D03*
Y-24016D02*
D03*
X-29724D02*
D03*
Y-29416D02*
D03*
X-43504Y-24016D02*
D03*
Y-29416D02*
D03*
X-57284Y-24016D02*
D03*
Y-29416D02*
D03*
X-77953D02*
D03*
Y-24016D02*
D03*
X-63976Y-43054D02*
D03*
Y-37654D02*
D03*
X-62008Y-58802D02*
D03*
Y-53402D02*
D03*
X-53150Y-157228D02*
D03*
Y-151828D02*
D03*
X-71063Y-24016D02*
D03*
Y-29416D02*
D03*
X-32677Y-215298D02*
D03*
Y-209898D02*
D03*
D25*
X-90213Y-5512D02*
D03*
X-95613D02*
D03*
X-48960Y-184056D02*
D03*
X-43560D02*
D03*
X-48960Y-190946D02*
D03*
X-43560D02*
D03*
X-48960Y-177166D02*
D03*
X-43560D02*
D03*
X-31749Y-184056D02*
D03*
X-37149D02*
D03*
X-31749Y-190946D02*
D03*
X-37149D02*
D03*
X-31749Y-177166D02*
D03*
X-37149D02*
D03*
X-59787Y-170276D02*
D03*
X-54387D02*
D03*
X-59787Y-163386D02*
D03*
X-54387Y-163386D02*
D03*
X-76519Y-36417D02*
D03*
X-71119D02*
D03*
X-76519Y-44291D02*
D03*
X-71119D02*
D03*
X-76519Y-52165D02*
D03*
X-71119D02*
D03*
X-76519Y-60039D02*
D03*
X-71119D02*
D03*
X-192661Y-5512D02*
D03*
X-187261D02*
D03*
X-197582Y-92520D02*
D03*
X-192182D02*
D03*
X-142858Y-5512D02*
D03*
X-137458D02*
D03*
X-148763Y-92520D02*
D03*
X-143363D02*
D03*
X-71119Y-83661D02*
D03*
X-76519D02*
D03*
X-99550Y-92520D02*
D03*
X-94150D02*
D03*
X-71119Y-75787D02*
D03*
X-76519D02*
D03*
X-64708Y-83661D02*
D03*
X-59308D02*
D03*
X-71119Y-67913D02*
D03*
X-76519D02*
D03*
X-23875Y-94488D02*
D03*
X-29275D02*
D03*
X-11558Y-68898D02*
D03*
X-6158D02*
D03*
X-35883Y-87008D02*
D03*
X-41283D02*
D03*
X-72102Y-118111D02*
D03*
X-77503D02*
D03*
X-47497Y-86614D02*
D03*
X-52897D02*
D03*
X-35686Y-94488D02*
D03*
X-41086D02*
D03*
X-23875Y-167323D02*
D03*
X-29275D02*
D03*
X-51434Y-36670D02*
D03*
X-56834D02*
D03*
X-37654D02*
D03*
X-43054D02*
D03*
X-23875D02*
D03*
X-29275D02*
D03*
X-77503Y-110237D02*
D03*
X-72102D02*
D03*
X-56243Y-64961D02*
D03*
X-50843D02*
D03*
D26*
X-80709Y-101870D02*
D03*
Y-91043D02*
D03*
D27*
X-214567Y-10827D02*
D03*
X-159449Y-136811D02*
D03*
X-116142Y-10827D02*
D03*
D82*
X-49213Y-124114D02*
D03*
Y-107382D02*
D03*
D83*
X-44961Y-69784D02*
D03*
Y-67224D02*
D03*
Y-64665D02*
D03*
Y-62106D02*
D03*
X-33780Y-69784D02*
D03*
Y-67224D02*
D03*
Y-64665D02*
D03*
Y-62106D02*
D03*
D84*
X-39370Y-65945D02*
D03*
D85*
X-209370Y-37530D02*
D03*
X-189842D02*
D03*
X-140472D02*
D03*
X-120945D02*
D03*
D86*
X-189842Y-53809D02*
D03*
X-209370D02*
D03*
X-120945D02*
D03*
X-140472D02*
D03*
D87*
X-221063Y-29528D02*
D03*
X-231890D02*
D03*
X-221063Y-37795D02*
D03*
X-231890D02*
D03*
X-108957Y-46850D02*
D03*
X-98130D02*
D03*
X-108957Y-38583D02*
D03*
X-98130D02*
D03*
X-181988Y-62992D02*
D03*
X-192815D02*
D03*
X-148721D02*
D03*
X-137894D02*
D03*
X-108957Y-30315D02*
D03*
X-98130D02*
D03*
X-221063Y-46063D02*
D03*
X-231890D02*
D03*
X-148675Y-72047D02*
D03*
X-137848D02*
D03*
X-181988D02*
D03*
X-192815D02*
D03*
D88*
X-25591Y-109744D02*
D03*
Y-124508D02*
D03*
D89*
X-50886Y-140551D02*
D03*
X-38878D02*
D03*
D90*
X-165354Y-10827D02*
D03*
D91*
X-69882Y-229921D02*
D03*
X-47047D02*
D03*
D92*
X-58465Y-219291D02*
D03*
X-55905D02*
D03*
X-61024D02*
D03*
X-53347D02*
D03*
X-63583D02*
D03*
D93*
X-53937Y-229921D02*
D03*
X-62992D02*
D03*
D156*
X-68899Y-218076D02*
G03*
X-68899Y-220507I36J-1215D01*
G01*
X-48030Y-220507D02*
G03*
X-48030Y-218076I-36J1215D01*
G01*
X-68899Y-220507D02*
X-67751D01*
X-68899Y-218076D02*
X-67752D01*
X-49177Y-220507D02*
X-48030D01*
X-49178Y-218076D02*
X-48030D01*
D157*
X-160433Y-108563D02*
D03*
X-165157D02*
D03*
X-169882D02*
D03*
Y-103642D02*
D03*
X-165157D02*
D03*
X-160433D02*
D03*
Y-98721D02*
D03*
X-165157D02*
D03*
X-169882D02*
D03*
X-160433Y-93799D02*
D03*
X-165157D02*
D03*
X-169882D02*
D03*
X-160433Y-88878D02*
D03*
X-165157D02*
D03*
X-169882D02*
D03*
X-160433Y-83957D02*
D03*
X-165157D02*
D03*
X-169882D02*
D03*
X-160433Y-79035D02*
D03*
X-165157D02*
D03*
X-169882D02*
D03*
X-160433Y-74114D02*
D03*
X-165157D02*
D03*
X-169882D02*
D03*
X-160433Y-69193D02*
D03*
X-165157D02*
D03*
X-169882D02*
D03*
X-160433Y-64272D02*
D03*
X-165157D02*
D03*
X-169882D02*
D03*
X-160433Y-59350D02*
D03*
X-165157D02*
D03*
X-169882D02*
D03*
X-160433Y-54429D02*
D03*
X-165157D02*
D03*
X-169882D02*
D03*
X-160433Y-49508D02*
D03*
X-165157D02*
D03*
X-169882D02*
D03*
X-160433Y-44587D02*
D03*
X-165157D02*
D03*
X-169882D02*
D03*
X-160433Y-39665D02*
D03*
X-165157D02*
D03*
X-169882D02*
D03*
X-160433Y-34744D02*
D03*
X-165157D02*
D03*
X-169882D02*
D03*
X-159744Y-113583D02*
D03*
X-164469D02*
D03*
X-169193D02*
D03*
X-158169Y-118209D02*
D03*
X-162894D02*
D03*
X-167618D02*
D03*
X-156299Y-123327D02*
D03*
X-161024D02*
D03*
X-165748D02*
D03*
M02*
