G04 Layer_Color=16711935*
%FSLAX25Y25*%
%MOIN*%
G70*
G01*
G75*
%ADD124R,0.04540X0.02768*%
%ADD132R,0.02768X0.04540*%
%ADD133R,0.07887X0.06312*%
%ADD134R,0.20800X0.20800*%
%ADD136C,0.23635*%
%ADD137C,0.06800*%
%ADD138C,0.06312*%
%ADD139O,0.12800X0.08800*%
%ADD140C,0.08000*%
%ADD141O,0.05721X0.04540*%
%ADD142O,0.04147X0.06902*%
%ADD143R,0.15354X0.80315*%
%ADD144R,0.09461X0.08871*%
%ADD145R,0.04147X0.01784*%
%ADD146R,0.07060X0.10249*%
%ADD147R,0.10406X0.22847*%
%ADD148R,0.10406X0.04304*%
%ADD149R,0.06312X0.07887*%
%ADD150R,0.07296X0.08674*%
%ADD151R,0.07296X0.09855*%
%ADD152R,0.20800X0.20800*%
%ADD153R,0.05131X0.06902*%
%ADD154R,0.02375X0.06115*%
%ADD155R,0.06706X0.06902*%
G36*
X-149213Y-126772D02*
X-169685D01*
X-172835Y-110630D01*
X-157480D01*
X-149213Y-126772D01*
D02*
G37*
D124*
X-24803Y-57424D02*
D03*
Y-52024D02*
D03*
X-20669Y-68645D02*
D03*
Y-63245D02*
D03*
X-58268Y-205456D02*
D03*
Y-200056D02*
D03*
X-51181Y-205456D02*
D03*
Y-200056D02*
D03*
X-189961Y-18054D02*
D03*
Y-12654D02*
D03*
X-139764Y-18054D02*
D03*
Y-12654D02*
D03*
X-92913Y-18054D02*
D03*
Y-12654D02*
D03*
X-64173Y-29416D02*
D03*
Y-24016D02*
D03*
X-50394Y-29416D02*
D03*
Y-24016D02*
D03*
X-36614Y-29416D02*
D03*
Y-24016D02*
D03*
X-29724D02*
D03*
Y-29416D02*
D03*
X-43504Y-24016D02*
D03*
Y-29416D02*
D03*
X-57284Y-24016D02*
D03*
Y-29416D02*
D03*
X-77953D02*
D03*
Y-24016D02*
D03*
X-63976Y-43054D02*
D03*
Y-37654D02*
D03*
X-62008Y-58802D02*
D03*
Y-53402D02*
D03*
X-53150Y-157228D02*
D03*
Y-151828D02*
D03*
X-71063Y-24016D02*
D03*
Y-29416D02*
D03*
X-32677Y-215298D02*
D03*
Y-209898D02*
D03*
D132*
X-90213Y-5512D02*
D03*
X-95613D02*
D03*
X-48960Y-184056D02*
D03*
X-43560D02*
D03*
X-48960Y-190946D02*
D03*
X-43560D02*
D03*
X-48960Y-177166D02*
D03*
X-43560D02*
D03*
X-31749Y-184056D02*
D03*
X-37149D02*
D03*
X-31749Y-190946D02*
D03*
X-37149D02*
D03*
X-31749Y-177166D02*
D03*
X-37149D02*
D03*
X-59787Y-170276D02*
D03*
X-54387D02*
D03*
X-59787Y-163386D02*
D03*
X-54387Y-163386D02*
D03*
X-76519Y-36417D02*
D03*
X-71119D02*
D03*
X-76519Y-44291D02*
D03*
X-71119D02*
D03*
X-76519Y-52165D02*
D03*
X-71119D02*
D03*
X-76519Y-60039D02*
D03*
X-71119D02*
D03*
X-192661Y-5512D02*
D03*
X-187261D02*
D03*
X-197582Y-92520D02*
D03*
X-192182D02*
D03*
X-142858Y-5512D02*
D03*
X-137458D02*
D03*
X-148763Y-92520D02*
D03*
X-143363D02*
D03*
X-71119Y-83661D02*
D03*
X-76519D02*
D03*
X-99550Y-92520D02*
D03*
X-94150D02*
D03*
X-71119Y-75787D02*
D03*
X-76519D02*
D03*
X-64708Y-83661D02*
D03*
X-59308D02*
D03*
X-71119Y-67913D02*
D03*
X-76519D02*
D03*
X-23875Y-94488D02*
D03*
X-29275D02*
D03*
X-11558Y-68898D02*
D03*
X-6158D02*
D03*
X-35883Y-87008D02*
D03*
X-41283D02*
D03*
X-72102Y-118111D02*
D03*
X-77503D02*
D03*
X-47497Y-86614D02*
D03*
X-52897D02*
D03*
X-35686Y-94488D02*
D03*
X-41086D02*
D03*
X-23875Y-167323D02*
D03*
X-29275D02*
D03*
X-51434Y-36670D02*
D03*
X-56834D02*
D03*
X-37654D02*
D03*
X-43054D02*
D03*
X-23875D02*
D03*
X-29275D02*
D03*
X-77503Y-110237D02*
D03*
X-72102D02*
D03*
X-56243Y-64961D02*
D03*
X-50843D02*
D03*
D133*
X-80709Y-101870D02*
D03*
Y-91043D02*
D03*
D134*
X-214567Y-10827D02*
D03*
X-159449Y-136811D02*
D03*
X-116142Y-10827D02*
D03*
D136*
X-11417Y-11417D02*
D03*
Y-224803D02*
D03*
X-224803Y-99606D02*
D03*
D137*
X-6890Y-157480D02*
D03*
Y-165354D02*
D03*
Y-173228D02*
D03*
X-64960Y-6889D02*
D03*
X-72834D02*
D03*
X-74803Y-193898D02*
D03*
Y-201772D02*
D03*
D138*
X-6890Y-181102D02*
D03*
Y-188976D02*
D03*
Y-196850D02*
D03*
Y-204724D02*
D03*
X-33464Y-6889D02*
D03*
X-41338D02*
D03*
X-49212D02*
D03*
X-57086D02*
D03*
X-6890Y-116142D02*
D03*
Y-124016D02*
D03*
Y-131890D02*
D03*
Y-139764D02*
D03*
X-74803Y-162402D02*
D03*
Y-170276D02*
D03*
Y-178150D02*
D03*
Y-186024D02*
D03*
D139*
X-7874Y-101693D02*
D03*
Y-91693D02*
D03*
Y-81693D02*
D03*
D140*
X-188859Y-122047D02*
D03*
X-218386Y-122047D02*
D03*
X-129803Y-122047D02*
D03*
X-100276Y-122047D02*
D03*
D141*
X-68307Y-219291D02*
D03*
X-48622D02*
D03*
D142*
X-72245Y-229921D02*
D03*
X-44684D02*
D03*
D143*
X-165157Y-70472D02*
D03*
D144*
X-49213Y-124114D02*
D03*
Y-107382D02*
D03*
D145*
X-44961Y-69784D02*
D03*
Y-67224D02*
D03*
Y-64665D02*
D03*
Y-62106D02*
D03*
X-33780Y-69784D02*
D03*
Y-67224D02*
D03*
Y-64665D02*
D03*
Y-62106D02*
D03*
D146*
X-39370Y-65945D02*
D03*
D147*
X-209370Y-37530D02*
D03*
X-189842D02*
D03*
X-140472D02*
D03*
X-120945D02*
D03*
D148*
X-189842Y-53809D02*
D03*
X-209370D02*
D03*
X-120945D02*
D03*
X-140472D02*
D03*
D149*
X-221063Y-29528D02*
D03*
X-231890D02*
D03*
X-221063Y-37795D02*
D03*
X-231890D02*
D03*
X-108957Y-46850D02*
D03*
X-98130D02*
D03*
X-108957Y-38583D02*
D03*
X-98130D02*
D03*
X-181988Y-62992D02*
D03*
X-192815D02*
D03*
X-148721D02*
D03*
X-137894D02*
D03*
X-108957Y-30315D02*
D03*
X-98130D02*
D03*
X-221063Y-46063D02*
D03*
X-231890D02*
D03*
X-148675Y-72047D02*
D03*
X-137848D02*
D03*
X-181988D02*
D03*
X-192815D02*
D03*
D150*
X-25591Y-109744D02*
D03*
Y-124508D02*
D03*
D151*
X-50886Y-140551D02*
D03*
X-38878D02*
D03*
D152*
X-165354Y-10827D02*
D03*
D153*
X-69882Y-229921D02*
D03*
X-47047D02*
D03*
D154*
X-58465Y-219291D02*
D03*
X-55905D02*
D03*
X-61024D02*
D03*
X-53347D02*
D03*
X-63583D02*
D03*
D155*
X-53937Y-229921D02*
D03*
X-62992D02*
D03*
M02*
